<?xml version="1.0" encoding="utf-8"?>
<!-- Generator: Adobe Illustrator 20.0.0, SVG Export Plug-In . SVG Version: 6.00 Build 0)  -->
<svg version="1.1" id="Layer_1" xmlns="http://www.w3.org/2000/svg" xmlns:xlink="http://www.w3.org/1999/xlink" x="0px" y="0px"
	 width="100px" height="90px" viewBox="0 0 100 90" style="enable-background:new 0 0 100 90;" xml:space="preserve">
<style type="text/css">
	.st0{fill:#799900;}
</style>
<path class="st0" d="M55.1,1.3c0.2,0,0.3,0,0.5,0c-0.1,0-0.2,0-0.4,0c-1.5-0.1-2.8,0.3-2.8,0.8c0,0,0,0,0,0.1
	C52.8,1.6,53.9,1.3,55.1,1.3z"/>
<path class="st0" d="M57.7,2C57.7,2,57.7,2,57.7,2C57.7,2,57.7,2,57.7,2z"/>
<path class="st0" d="M84.1,62.7C84.1,62.7,84.1,62.6,84.1,62.7C84.1,62.6,84.1,62.6,84.1,62.7C84.1,62.7,84.1,62.7,84.1,62.7z"/>
<polygon class="st0" points="4.5,37.4 4.5,37.4 4.5,37.4 "/>
<path class="st0" d="M40.1,48.3c2.5-0.1,4.6-1,4.9-2c0.2-1-1.6-1.5-4-1.2l-9.5,1.2c-2.4,0.3-4.9,1.6-5.5,2.9
	c-0.6,1.3-0.5,1.8,0.3,1.1s3.4-1.3,5.8-1.5L40.1,48.3z"/>
<path class="st0" d="M68.8,49l-9.6,0.5c-2.5,0.1-4.2,1-3.8,1.9c0.4,0.9,2.7,1.4,5.1,1.1l8.1-0.9c2.4-0.3,5.1-0.1,6,0.5
	c0.8,0.5,0.9,0,0.1-1.1C73.9,49.7,71.3,48.8,68.8,49z"/>
<path class="st0" d="M33.3,74.1c0.3-0.1,0.6-0.2,0.9-0.3c0.4-0.1,0.7-0.5,0.6-0.9c-0.1-0.4-0.5-0.7-0.9-0.6
	c-0.5,0.1-2.9,0.7-3.3,2.2c-0.1,0.5-0.1,1.2,0.7,2c0.1,0.1,0.3,0.2,0.5,0.2c0.2,0,0.4-0.1,0.6-0.2c0.3-0.3,0.3-0.8,0-1.1
	c-0.1-0.1-0.1-0.1-0.2-0.2c1.9,1.1,9.2,5,19,5c5.7,0,12.2-1.3,18.9-5.2c0,0.1-0.1,0.2-0.3,0.4c-0.3,0.3-0.3,0.8,0,1.1
	c0.2,0.2,0.4,0.2,0.6,0.2c0.2,0,0.4-0.1,0.5-0.2c0.8-0.8,0.9-1.5,0.7-2c-0.4-1.5-2.8-2.1-3.3-2.2c-0.4-0.1-0.8,0.2-0.9,0.6
	c-0.1,0.4,0.2,0.8,0.6,0.9c0.2,0.1,0.5,0.1,0.7,0.2C51.9,83.3,36.8,76.1,33.3,74.1z"/>
<path class="st0" d="M37.8,54.8c-0.4-0.2-0.9-0.3-1.4-0.3c-2.1,0-3.8,1.7-3.8,3.8s1.7,3.8,3.8,3.8s3.8-1.7,3.8-3.8
	c0-0.7-0.2-1.3-0.5-1.9c0,0,0,0,0,0c0,0.9-0.7,1.6-1.6,1.6c-0.9,0-1.6-0.7-1.6-1.6C36.4,55.6,37,54.9,37.8,54.8z"/>
<path class="st0" d="M62.9,54.5c-0.3,0-0.7,0-1,0.1c0.6,0.2,1,0.8,1,1.5c0,0.9-0.7,1.6-1.6,1.6c-0.8,0-1.5-0.6-1.6-1.4
	c-0.3,0.6-0.5,1.2-0.5,1.9c0,2.1,1.7,3.8,3.8,3.8c2.1,0,3.8-1.7,3.8-3.8S64.9,54.5,62.9,54.5z"/>
<path class="st0" d="M44.3,69.4C44.3,69.5,44.4,69.5,44.3,69.4C44.4,69.5,44.3,69.5,44.3,69.4c0,0.1,0,0.1,0,0.1c0,0,0,0,0,0
	c0,0.1,0,0.2,0.1,0.3c0,0,0,0,0,0c0,0,0,0,0,0.1c0.1,0.2,0.2,0.3,0.4,0.4c0.3,0.2,0.6,0.3,1.1,0.3c0.9,0,1.6-0.5,1.6-1.2
	c0-0.3-0.1-0.6-0.4-0.8c0.1,0,0.1,0,0.2,0c1,0,2.7,1.8,2.7,1.8c-0.3-1.6-1.3-3.3-3.1-3.4C45.4,67.1,44.4,68.3,44.3,69.4L44.3,69.4z"
	/>
<path class="st0" d="M55.7,68.7c0.1,0,0.2,0,0.2,0c-0.2,0.2-0.4,0.5-0.4,0.8c0,0.7,0.7,1.2,1.6,1.2c0.4,0,0.8-0.1,1.1-0.3
	c0.2-0.1,0.3-0.2,0.4-0.4c0,0,0,0,0-0.1c0,0,0,0,0,0c0.1-0.1,0.1-0.2,0.1-0.3c0,0,0,0,0,0c0,0,0,0,0-0.1c0,0,0,0,0,0c0,0,0,0,0-0.1
	l0,0c0-1.1-1-2.3-2.6-2.2c-1.8,0.1-2.8,1.8-3.1,3.4C53,70.5,54.7,68.8,55.7,68.7z"/>
<path class="st0" d="M55.6,1.3c1,0.1,1.8,0.4,2.1,0.7C57.3,1.6,56.5,1.4,55.6,1.3z"/>
<path class="st0" d="M84.1,62.6C84.1,62.6,84.1,62.6,84.1,62.6c11.5-2,14.2-6.6,13.8-10.4c-0.5-5.7-6.3-5.7-9.6-5.3
	C93.2,24.7,81,4.5,58.2,3.4c0.1-0.2,0.2-0.4,0.2-0.6c0-1.1-1.7-1.9-3.9-1.9c-2.1,0-3.9,0.9-3.9,1.9c0,0,0,0,0,0
	C29,2.7,20.6,11.1,15.8,21.3c-0.3,0.6-0.5,1.2-0.8,1.7C-0.4,24.7,0.6,31.7,4.5,37.4v0c2.2,3.2,5.4,6.1,7.1,7.3c0,0.1,0,0.2,0,0.2
	C8.3,44,1.5,43,1.6,50.4c0.1,3.9,2.4,8.5,13.8,10.4c0.1,0.2,0.1,0.3,0.2,0.5c-1.2,0.9-3.5,3.1-3.3,6.1c0.2,3.5,3.7,8.4,10.6,11.4
	C40.5,86.5,53,88.5,53,88.5c4,0,33.6-10.2,33.6-20c0-1.8-0.8-3.3-2.9-4.6C83.8,63.6,83.9,63.2,84.1,62.6
	C84.1,62.7,84.1,62.7,84.1,62.6z M94.8,51c1.8,2.8-2,8.1-10.4,10.3c-0.9-6.7,9.2-10.7,9.2-10.7c-2.8-0.5-5.6,0.4-6.4,0.7
	c0.2-0.7,0.5-1.5,0.6-2.2C90.3,48.7,93.4,48.8,94.8,51z M57.7,2C57.7,2,57.7,2,57.7,2c0.1,0.1,0.2,0.3,0.2,0.4
	c0,0.6-1.3,0.9-2.8,0.8c-1.5-0.1-2.6-0.6-2.7-1.1c0,0,0,0,0-0.1c0-0.6,1.3-0.9,2.8-0.8c0.1,0,0.2,0,0.4,0C56.5,1.4,57.3,1.6,57.7,2z
	 M53,4.1c1.9,0.1,9.4,0,17,3.1c3.2,3.4,10.6,13,6.3,23.4c-9.9-3.7-25.4-8.2-42.9-8.7C33.2,11.5,42.1,6,47.6,3.9
	C49.3,3.9,51.1,3.9,53,4.1z M46.3,3.9c-5.1,1.9-13.9,6.8-15.8,17.9c-4.2,0-8.5,0.3-12.9,0.8C17.5,22.7,21.4,5,46.3,3.9z M4.7,50.3
	c0.6-3,4.2-3.1,7.4-2.6c0.1,0.5,0.2,1.1,0.3,1.7C11.1,49,9.1,48.7,7.1,49c0,0,5,1.4,7.9,10.5C7.9,57.7,3.8,54.9,4.7,50.3z M8.3,25.6
	c38.9-8.3,67.9,6.3,67.9,6.3c-29,1-32.6,21.1-58.7-1.7C12.2,25.5,8.3,25.6,8.3,25.6z M73.5,77.6c-16.5,11.9-25.1,11.3-45-0.2
	C7.1,65.1,31.5,69,31.5,69C9.6,51.4,17.7,38.1,20.3,34.8c32.8,22,28.9-5.9,58.8-0.2c4.8,0.9,10.9,21.6-12.4,34.3
	C66.6,68.9,89.9,65.8,73.5,77.6z M79.3,31.6c1.9-4.6,0.9-11-2.3-16.8c-1.8-3.3-4.3-5.9-5.7-7.2c8.4,3.7,16.5,11.5,16.5,27.8
	C87.7,35.4,84.6,33.8,79.3,31.6z"/>
</svg>
